<svg width="70" height="70" viewBox="0 0 70 70" fill="none" xmlns="http://www.w3.org/2000/svg">
<path d="M39.0833 58.3334H49L55.4981 55.3352L63.4318 51.6717C63.9217 51.4501 64.4469 51.3334 64.9716 51.3334H65.1585C65.2166 51.3334 65.2752 51.3334 65.3333 51.3447C67.2816 51.4268 68.8333 53.0366 68.8333 55.0082C68.8333 56.3384 68.1218 57.5751 66.9552 58.2166L50.1667 67.6667H10.5V54.8334H18.6667L23.3333 50.1667H39.0833C39.2816 50.1667 39.4684 50.1781 39.6553 50.2134C41.6383 50.4817 43.1667 52.197 43.1667 54.25C43.1667 55.37 42.7115 56.3965 41.9653 57.1319C41.2298 57.8782 40.2033 58.3334 39.0833 58.3334V58.3334Z" fill="#F3F3FB"/>
<path d="M65.3334 45.5V51.3447C65.2753 51.3333 65.2166 51.3333 65.1585 51.3333H64.9716C64.447 51.3333 63.9218 51.4501 63.4318 51.6717L55.4982 55.3352L65.3334 45.5Z" fill="#577399"/>
<path d="M65.3333 37.3333V45.5L55.4981 55.3352L49 58.3333V53.6666L65.3333 37.3333Z" fill="#7ABFDF"/>
<path d="M65.3333 29.1667V37.3334L49 53.6667V45.5L65.3333 29.1667Z" fill="#577399"/>
<path d="M65.3333 21V29.1667L49 45.5V37.3333L65.3333 21Z" fill="#7ABFDF"/>
<path d="M65.3333 18.6667V21L49 37.3334V29.1667L59.5 18.6667H65.3333Z" fill="#577399"/>
<path d="M65.3333 9.33331V18.6666H49V9.33331H65.3333Z" fill="#577399"/>
<path d="M59.5 18.6667L49 29.1667V18.6667H59.5Z" fill="#7ABFDF"/>
<path d="M49 53.6667V58.3334H39.0834C40.2033 58.3334 41.2299 57.8782 41.9653 57.1319C42.7115 56.3965 43.1667 55.37 43.1667 54.25C43.1667 52.197 41.6383 50.4817 39.6553 50.2134L39.6667 50.1667V18.6667H49V53.6667Z" fill="#D73071"/>
<path d="M49 9.33331V18.6666H39.6666V9.33331H49Z" fill="#D73071"/>
<path d="M39.6667 44.8352V50.1667L39.6553 50.2134C39.4685 50.1781 39.2816 50.1667 39.0834 50.1667H36.8315L23.3334 36.6686V28.5019L39.6667 44.8352Z" fill="#577399"/>
<path d="M39.6667 36.6685V44.8352L23.3334 28.5019V20.3352L39.6667 36.6685Z" fill="#7ABFDF"/>
<path d="M39.6667 28.5019V36.6686L23.3334 20.3352V18.6667H29.8315L39.6667 28.5019Z" fill="#577399"/>
<path d="M39.6666 18.6667V28.5019L29.8314 18.6667H39.6666Z" fill="#7ABFDF"/>
<path d="M39.6667 9.33331V18.6666H23.3334V9.33331H39.6667Z" fill="#577399"/>
<path d="M36.8315 50.1666H28.6648L23.3334 44.8352V36.6685L36.8315 50.1666Z" fill="#7ABFDF"/>
<path d="M28.6648 50.1667H23.3334V44.8352L28.6648 50.1667Z" fill="#577399"/>
<path d="M16.4148 11.5852C17.0334 11.6781 17.5 12.2033 17.5 12.8334C17.5 13.4634 17.0334 13.9886 16.4148 14.0815C13.4166 14.5486 11.0485 16.9167 10.5814 19.9268C10.4886 20.5449 9.96334 21 9.33329 21C8.70325 21 8.17802 20.5449 8.08516 19.9268C7.61804 16.9167 5.24996 14.5486 2.25183 14.0815C1.63318 13.9886 1.16663 13.4634 1.16663 12.8334C1.16663 12.2033 1.63318 11.6781 2.25183 11.5852C5.24996 11.1181 7.61804 8.75002 8.08516 5.73993C8.17802 5.12185 8.70325 4.66669 9.33329 4.66669C9.96334 4.66669 10.4886 5.12185 10.5814 5.73993C11.0485 8.75002 13.4166 11.1181 16.4148 11.5852Z" fill="#FFBD52"/>
<path d="M10.5 67.6667V68.8333H1.16663V52.5H10.5V67.6667Z" fill="#7ABFDF"/>
<path d="M66.5 50.3683V9.33333C66.5 8.68962 65.977 8.16667 65.3333 8.16667H58.6415C59.5946 6.72257 59.7871 4.93042 59.0972 3.26644C58.2621 1.25212 56.3896 0 54.2078 0C52.7951 0 51.4649 0.550863 50.4663 1.55062L44.3333 7.68359L38.2004 1.55062C37.2006 0.550863 35.8716 0 34.4588 0C32.277 0 30.4045 1.25212 29.5706 3.26644C28.8796 4.93042 29.0732 6.72257 30.0251 8.16667H23.3333C22.6896 8.16667 22.1667 8.68962 22.1667 9.33333V49.6836L18.1836 53.6667H11.6667V52.5C11.6667 51.8563 11.1437 51.3333 10.5 51.3333H1.16667C0.522949 51.3333 0 51.8563 0 52.5V68.8333C0 69.477 0.522949 70 1.16667 70H10.5C11.1437 70 11.6667 69.477 11.6667 68.8333H50.1667C50.3672 68.8333 50.5643 68.7821 50.7397 68.6841L67.5174 59.2397C69.0492 58.3977 70 56.7759 70 55.0082C70 52.7985 68.5303 50.9448 66.5 50.3683V50.3683ZM9.33333 67.6667H2.33333V53.6667H9.33333V67.6667ZM40.8333 49.3008V19.8333H47.8333V57.1667H43.4469C44.0229 56.3139 44.3333 55.3084 44.3333 54.25C44.3333 51.9833 42.867 50.0055 40.8333 49.3008ZM24.5 23.1516L38.5 37.1516V42.0188L24.5 28.0188V23.1516ZM38.5 25.6855L32.6479 19.8333H38.5V25.6855ZM29.3484 19.8333L38.5 28.9849V33.8521L24.5 19.8521V19.8333H29.3484ZM24.5 47.6516L25.8484 49H24.5V47.6516ZM29.1479 49L24.5 44.3521V39.4849L34.0151 49H29.1479ZM37.3145 49L24.5 36.1855V31.3183L38.5 45.3183V49H37.3145ZM44.3333 10.5H47.8333V17.5H40.8333V10.5H44.3333ZM64.1667 36.8503L50.1667 50.8503V45.9831L64.1667 31.9831V36.8503ZM64.1667 28.6836L50.1667 42.6836V37.8164L64.1667 23.8164V28.6836ZM64.1667 20.5169L50.1667 34.5169V29.6497L59.9831 19.8333H64.1667V20.5169ZM50.1667 26.3503V19.8333H56.6836L50.1667 26.3503ZM50.1667 54.1497L64.1667 40.1497V45.0169L54.8231 54.3611L50.1667 56.5098V54.1497ZM64.1667 48.3164V50.2544C63.7525 50.3256 63.3418 50.4316 62.943 50.6121L60.9504 51.5316L64.1667 48.3164ZM64.1667 17.5H50.1667V10.5H64.1667V17.5ZM52.116 3.20036C52.6749 2.64152 53.4183 2.33333 54.2078 2.33333C55.665 2.33333 56.5754 3.27726 56.9416 4.1591C57.3068 5.04093 57.3302 6.35229 56.2996 7.38281L55.5169 8.16667H47.1497L52.116 3.20036ZM32.367 7.38395C31.3365 6.35343 31.3599 5.04207 31.725 4.16024C32.0902 3.27726 33.0016 2.33333 34.4588 2.33333C35.2484 2.33333 35.9918 2.64152 36.5506 3.20036L41.5169 8.16667H33.1497L32.367 7.38395ZM24.5 10.5H38.5V17.5H24.5V10.5ZM66.3821 57.1991L49.8608 66.5H11.6667V56H18.6667C18.976 56 19.2734 55.8775 19.4915 55.6582L23.8164 51.3333H39.0833C39.2058 51.3333 39.3226 51.3379 39.4986 51.3692C40.9245 51.5618 42 52.8008 42 54.25C42 55.0293 41.6969 55.7585 41.1341 56.3127C40.5918 56.8636 39.8626 57.1667 39.0833 57.1667H29.1667V59.5H49C49.1692 59.5 49.3361 59.4641 49.4888 59.3929L63.9126 52.7347C64.2521 52.5803 64.6184 52.5 64.9716 52.5L65.1095 52.4897C65.1676 52.5011 65.2262 52.508 65.2843 52.5103C66.6202 52.5666 67.6667 53.6644 67.6667 55.0082C67.6667 55.9254 67.179 56.7616 66.3821 57.1991V57.1991Z" fill="#313B45"/>
<path d="M2.07186 15.2345C4.58748 15.6264 6.54028 17.5837 6.93107 20.0994C7.11222 21.2974 8.12109 22.1667 9.33333 22.1667C10.5456 22.1667 11.5544 21.2974 11.7345 20.1051C12.1252 17.5826 14.078 15.6264 16.5874 15.2345C17.7917 15.0544 18.6667 14.0444 18.6667 12.8333C18.6667 11.6222 17.7917 10.6122 16.5948 10.4322C14.0792 10.0403 12.1264 8.08293 11.7356 5.5673C11.5544 4.3693 10.5456 3.5 9.33333 3.5C8.12109 3.5 7.11222 4.3693 6.93221 5.5616C6.54142 8.08407 4.58862 10.0403 2.07926 10.4322C0.875 10.6122 0 11.6222 0 12.8333C0 14.0444 0.875 15.0544 2.07186 15.2345V15.2345ZM2.43132 12.7376C5.95467 12.1879 8.69076 9.44784 9.23877 5.91252C9.24561 5.86353 9.2832 5.83333 9.33333 5.83333C9.38346 5.83333 9.42106 5.86353 9.42904 5.91878C9.97705 9.44784 12.712 12.1896 16.2422 12.7388C16.2866 12.7456 16.3333 12.7809 16.3333 12.8333C16.3333 12.8857 16.2866 12.9211 16.2354 12.929C12.712 13.4788 9.97591 16.2188 9.4279 19.7541C9.41252 19.8521 9.25415 19.8578 9.23763 19.7479C8.68962 16.2188 5.95467 13.4771 2.42448 12.9279C2.38005 12.9211 2.33333 12.8857 2.33333 12.8333C2.33333 12.7809 2.38005 12.7456 2.43132 12.7376Z" fill="#313B45"/>
<path d="M17.5 43.1667H19.8333V45.5H17.5V43.1667Z" fill="#313B45"/>
<path d="M12.8334 43.1667H15.1667V45.5H12.8334V43.1667Z" fill="#313B45"/>
<path d="M8.16663 43.1667H10.5V45.5H8.16663V43.1667Z" fill="#313B45"/>
</svg>
