<svg width="70" height="70" viewBox="0 0 70 70" fill="none" xmlns="http://www.w3.org/2000/svg">
<path d="M57.1666 47.8333V50.1666C57.1666 52.7449 55.0782 54.8333 52.4999 54.8333H26.8333V47.8333H57.1666Z" fill="#577399"/>
<path d="M57.1667 8.16669V47.8334H26.8333V46.6667L32.3864 41.1136C33.3081 40.1919 33.8333 38.9318 33.8333 37.6136C33.8333 36.2481 33.2734 35.0114 32.3864 34.1136C31.4886 33.2267 30.2519 32.6667 28.8864 32.6667C27.5682 32.6667 26.3081 33.1919 25.3864 34.1136L17.5 42V8.16669H57.1667Z" fill="#7ABFDF"/>
<path d="M57.1667 5.83335V8.16669H17.5V5.83335C17.5 3.25507 19.5884 1.16669 22.1667 1.16669H52.5C55.0783 1.16669 57.1667 3.25507 57.1667 5.83335Z" fill="#577399"/>
<path d="M26.8333 54.8334H45.4999V57.1667L39.6666 63V68.8334H12.8333V46.6667L25.3863 34.1136C26.308 33.1919 27.5681 32.6667 28.8863 32.6667C30.2518 32.6667 31.4885 33.2267 32.3863 34.1136C33.2733 35.0114 33.8333 36.2481 33.8333 37.6136C33.8333 38.9318 33.308 40.1919 32.3863 41.1136L26.8333 46.6667V54.8334Z" fill="#F3F3FB"/>
<path d="M11.6667 68.8333C11.6667 69.4788 12.188 70 12.8334 70H39.6667C40.3122 70 40.8334 69.4788 40.8334 68.8333V63.4831L46.3249 57.9915C46.5443 57.7734 46.6667 57.4771 46.6667 57.1667V56H52.5001C55.7164 56 58.3334 53.383 58.3334 50.1667V5.83333C58.3334 2.61702 55.7164 0 52.5001 0H22.1667C18.9504 0 16.3334 2.61702 16.3334 5.83333V41.5169L12.0085 45.8418C11.7892 46.06 11.6667 46.3562 11.6667 46.6667V68.8333ZM52.5001 53.6667H28.0001V49H56.0001V50.1667C56.0001 52.0961 54.4295 53.6667 52.5001 53.6667ZM22.1667 2.33333H52.5001C54.4295 2.33333 56.0001 3.90389 56.0001 5.83333V7H18.6667V5.83333C18.6667 3.90389 20.2373 2.33333 22.1667 2.33333ZM18.6667 9.33333H56.0001V46.6667H28.4832L33.2091 41.9408C34.3643 40.7855 35.0001 39.2491 35.0001 37.6159C35.0001 34.2441 32.256 31.5 28.8842 31.5C27.251 31.5 25.7146 32.1357 24.5593 33.291L18.6667 39.1836V9.33333ZM14.0001 47.1497L26.2091 34.9408C26.9234 34.2264 27.8742 33.8333 28.8842 33.8333C30.9703 33.8333 32.6667 35.5298 32.6667 37.6159C32.6667 38.6259 32.2737 39.5767 31.5593 40.291L26.0085 45.8418C25.7892 46.06 25.6667 46.3562 25.6667 46.6667V54.3503L21.3419 58.6751L22.9916 60.3249L27.3165 56H44.3334V56.6836L38.8419 62.1751C38.6226 62.3933 38.5001 62.6895 38.5001 63V67.6667H14.0001V47.1497Z" fill="#313B45"/>
<path d="M46.6668 17.5H49.0002V14C49.0002 13.3546 48.4789 12.8333 47.8335 12.8333H44.3335V15.1666H46.6668V17.5Z" fill="#313B45"/>
<path d="M44.3335 32.6666V35H47.8335C48.4789 35 49.0002 34.4787 49.0002 33.8333V30.3333H46.6668V32.6666H44.3335Z" fill="#313B45"/>
<path d="M26.8333 15.1666H30.3333V12.8333H25.6667C25.0212 12.8333 24.5 13.3546 24.5 14V17.5H26.8333V15.1666Z" fill="#313B45"/>
<path d="M38.5 12.8333H42V15.1666H38.5V12.8333Z" fill="#313B45"/>
<path d="M32.6667 12.8333H35.0001V17.5H32.6667V12.8333Z" fill="#313B45"/>
<path d="M42 17.5V22.1667C42 22.8121 42.5212 23.3333 43.1667 23.3333H49V21H44.3333V17.5H42Z" fill="#313B45"/>
<path d="M49.0002 25.6667H42.0002C41.3547 25.6667 40.8335 26.1879 40.8335 26.8334V30.3334H43.1668V28H49.0002V25.6667Z" fill="#313B45"/>
<path d="M42.0001 32.6667H38.5001V31.5H36.1667V33.8333C36.1667 34.4788 36.688 35 37.3334 35H42.0001V32.6667Z" fill="#313B45"/>
<path d="M37.3335 17.5H39.6668V24.5H37.3335V17.5Z" fill="#313B45"/>
<path d="M38.5001 26.8333H35.0001V24.5H32.6667V28C32.6667 28.6454 33.188 29.1667 33.8334 29.1667H38.5001V26.8333Z" fill="#313B45"/>
<path d="M29.1667 17.5V21C29.1667 21.6454 29.688 22.1667 30.3334 22.1667H35.0001V19.8333H31.5001V17.5H29.1667Z" fill="#313B45"/>
<path d="M26.8333 22.1666H28V19.8333H25.6667C25.0212 19.8333 24.5 20.3546 24.5 21V24.5H26.8333V22.1666Z" fill="#313B45"/>
<path d="M29.1667 24.5H31.5001V26.8333H29.1667V24.5Z" fill="#313B45"/>
<path d="M25.6667 30.3333H30.3333V28H26.8333V26.8333H24.5V29.1666C24.5 29.8121 25.0212 30.3333 25.6667 30.3333Z" fill="#313B45"/>
<path d="M42.825 38.8418L41.1753 40.4915L44.6753 43.9915C44.9026 44.2188 45.2017 44.3333 45.5002 44.3333C45.7987 44.3333 46.0977 44.2188 46.325 43.9915L53.325 36.9915L51.6753 35.3418L45.5002 41.5169L42.825 38.8418Z" fill="#313B45"/>
<path d="M11.6667 38.5H14.0001V40.8333H11.6667V38.5Z" fill="#313B45"/>
<path d="M11.6667 33.8333H14.0001V36.1666H11.6667V33.8333Z" fill="#313B45"/>
<path d="M11.6667 29.1667H14.0001V31.5H11.6667V29.1667Z" fill="#313B45"/>
</svg>
