<svg width="70" height="70" viewBox="0 0 70 70" fill="none" xmlns="http://www.w3.org/2000/svg">
<path d="M68.8333 11.6667C68.8333 17.4658 64.1324 22.1667 58.3333 22.1667C52.5341 22.1667 47.8333 17.4658 47.8333 11.6667C47.8333 5.86753 52.5341 1.16669 58.3333 1.16669C64.1324 1.16669 68.8333 5.86753 68.8333 11.6667Z" fill="#D73071"/>
<path d="M60.6666 53.5032V63C60.6666 66.2317 58.053 68.8334 54.8333 68.8334H15.1666C11.9469 68.8334 9.33325 66.2198 9.33325 63V53.6667C9.33325 52.0568 9.98665 50.5985 11.0365 49.5366C12.0984 48.4868 13.5567 47.8334 15.1666 47.8334C16.7764 47.8334 18.2348 47.18 19.2966 46.1301C20.3465 45.0682 20.9999 43.6099 20.9999 42H16.9166C16.1117 42 15.3768 41.6736 14.8516 41.1484C14.3263 40.6231 13.9999 39.8883 13.9999 39.0834C13.9999 37.4735 15.3067 36.1667 16.9166 36.1667H53.0833C53.8882 36.1667 54.6231 36.4931 55.1483 37.0183C55.6735 37.5436 55.9999 38.2784 55.9999 39.0834C55.9999 40.6932 54.6931 42 53.0833 42H48.9999C48.9999 45.2197 51.6135 47.8334 54.8566 47.8334H54.9967C58.135 47.8334 60.6666 50.3649 60.6666 53.5032V53.5032ZM53.6666 59.5C53.6666 56.9217 51.5782 54.8334 48.9999 54.8334C46.4216 54.8334 44.3333 56.9217 44.3333 59.5C44.3333 62.0783 46.4216 64.1667 48.9999 64.1667C51.5782 64.1667 53.6666 62.0783 53.6666 59.5ZM39.6666 59.5C39.6666 56.9217 37.5782 54.8334 34.9999 54.8334C32.4216 54.8334 30.3333 56.9217 30.3333 59.5C30.3333 62.0783 32.4216 64.1667 34.9999 64.1667C37.5782 64.1667 39.6666 62.0783 39.6666 59.5ZM25.6666 59.5C25.6666 56.9217 23.5782 54.8334 20.9999 54.8334C18.4216 54.8334 16.3333 56.9217 16.3333 59.5C16.3333 62.0783 18.4216 64.1667 20.9999 64.1667C23.5782 64.1667 25.6666 62.0783 25.6666 59.5Z" fill="#7ABFDF"/>
<path d="M53.6666 59.5C53.6666 62.0771 51.5771 64.1666 48.9999 64.1666C46.4228 64.1666 44.3333 62.0771 44.3333 59.5C44.3333 56.9228 46.4228 54.8333 48.9999 54.8333C51.5771 54.8333 53.6666 56.9228 53.6666 59.5Z" fill="#FFBD52"/>
<path d="M39.6666 59.5C39.6666 62.0771 37.5771 64.1666 34.9999 64.1666C32.4228 64.1666 30.3333 62.0771 30.3333 59.5C30.3333 56.9228 32.4228 54.8333 34.9999 54.8333C37.5771 54.8333 39.6666 56.9228 39.6666 59.5Z" fill="#FFBD52"/>
<path d="M28 8.16669C28 12.0324 24.8657 15.1667 21 15.1667C17.1343 15.1667 14 12.0324 14 8.16669C14 4.30096 17.1343 1.16669 21 1.16669C24.8657 1.16669 28 4.30096 28 8.16669Z" fill="#FFBD52"/>
<path d="M25.6666 59.5C25.6666 62.0771 23.5771 64.1666 20.9999 64.1666C18.4228 64.1666 16.3333 62.0771 16.3333 59.5C16.3333 56.9228 18.4228 54.8333 20.9999 54.8333C23.5771 54.8333 25.6666 56.9228 25.6666 59.5Z" fill="#FFBD52"/>
<path d="M15.1667 22.1667C15.1667 26.0324 12.0325 29.1667 8.16675 29.1667C4.30103 29.1667 1.16675 26.0324 1.16675 22.1667C1.16675 18.301 4.30103 15.1667 8.16675 15.1667C12.0325 15.1667 15.1667 18.301 15.1667 22.1667Z" fill="#FFBD52"/>
<path d="M57.1667 39.0833C57.1667 36.8315 55.3353 35 53.0834 35H16.9167C14.6649 35 12.8334 36.8315 12.8334 39.0833C12.8334 41.3352 14.6649 43.1667 16.9167 43.1667H19.6864C19.1675 45.1781 17.3377 46.6667 15.1667 46.6667C11.3062 46.6667 8.16675 49.8061 8.16675 53.6667V63C8.16675 66.8606 11.3062 70 15.1667 70H54.8334C58.694 70 61.8334 66.8629 61.8334 63.0046V53.4986C61.8334 51.674 61.123 49.9576 59.8328 48.6673C58.5425 47.3759 56.8261 46.6667 55.0003 46.6667H54.8545C52.6738 46.6667 50.8367 45.1781 50.3149 43.1667H53.0834C55.3353 43.1667 57.1667 41.3352 57.1667 39.0833ZM49.0001 40.8356C48.3564 40.8356 47.8334 41.3586 47.8334 42.0023C47.8334 45.8617 50.9825 49 54.8534 49H54.9992C56.2017 49 57.3325 49.4677 58.183 50.3171C59.0335 51.1664 59.5001 52.2961 59.5001 53.4975V63.0034C59.5001 65.5749 57.4071 67.6667 54.8334 67.6667H15.1667C12.593 67.6667 10.5001 65.5737 10.5001 63V53.6667C10.5001 51.0929 12.593 49 15.1667 49C19.0273 49 22.1667 45.8606 22.1667 42C22.1667 41.3546 21.6438 40.8333 21.0001 40.8333H16.9167C15.9517 40.8333 15.1667 40.0483 15.1667 39.0833C15.1667 38.1183 15.9517 37.3333 16.9167 37.3333H53.0834C54.0484 37.3333 54.8334 38.1183 54.8334 39.0833C54.8334 40.0483 54.0484 40.8333 53.0834 40.8333L49.0001 40.8356Z" fill="#313B45"/>
<path d="M58.3333 0C52.2938 0 47.3132 4.61312 46.7259 10.5H44.3333C41.117 10.5 38.5 13.117 38.5 16.3333V28.6836L36.9915 27.1751L35.3418 28.8249L38.8418 32.3249C39.0691 32.5522 39.3682 32.6667 39.6667 32.6667C39.9652 32.6667 40.2642 32.5522 40.4915 32.3249L43.9915 28.8249L42.3418 27.1751L40.8333 28.6836V16.3333C40.8333 14.4039 42.4039 12.8333 44.3333 12.8333H46.7259C47.3132 18.7202 52.2949 23.3333 58.3333 23.3333C64.7665 23.3333 70 18.0999 70 11.6667C70 5.23348 64.7665 0 58.3333 0ZM58.3333 21C53.187 21 49 16.813 49 11.6667C49 6.52035 53.187 2.33333 58.3333 2.33333C63.4797 2.33333 67.6667 6.52035 67.6667 11.6667C67.6667 16.813 63.4797 21 58.3333 21Z" fill="#313B45"/>
<path d="M0 22.1667C0 26.6687 3.66349 30.3333 8.16667 30.3333C12.2722 30.3333 15.6708 27.2839 16.2399 23.3333H17.5C19.4294 23.3333 21 24.9039 21 26.8333V28.6836L19.4915 27.1751L17.8418 28.8249L21.3418 32.3249C21.5691 32.5522 21.8682 32.6667 22.1667 32.6667C22.4652 32.6667 22.7642 32.5522 22.9915 32.3249L26.4915 28.8249L24.8418 27.1751L23.3333 28.6836V26.8333C23.3333 23.617 20.7163 21 17.5 21H16.2399C15.6708 17.0494 12.2722 14 8.16667 14C3.66349 14 0 17.6646 0 22.1667ZM14 22.1667C14 25.383 11.383 28 8.16667 28C4.95036 28 2.33333 25.383 2.33333 22.1667C2.33333 18.9504 4.95036 16.3333 8.16667 16.3333C11.383 16.3333 14 18.9504 14 22.1667Z" fill="#313B45"/>
<path d="M29.0908 7.10994C28.569 3.10579 25.1436 0 20.9999 0C16.4967 0 12.8333 3.66463 12.8333 8.16667C12.8333 12.6687 16.4967 16.3333 20.9999 16.3333C25.0445 16.3333 28.4027 13.3745 29.0464 9.5105C30.4626 9.95882 31.4999 11.2702 31.4999 12.8333V18.1836L29.9914 16.6751L28.3417 18.3249L31.8417 21.8249C32.069 22.0522 32.3681 22.1667 32.6666 22.1667C32.9651 22.1667 33.2641 22.0522 33.4914 21.8249L36.9914 18.3249L35.3417 16.6751L33.8332 18.1836V12.8333C33.8332 9.99015 31.7859 7.62321 29.0908 7.10994ZM20.9999 14C17.7836 14 15.1666 11.383 15.1666 8.16667C15.1666 4.95036 17.7836 2.33333 20.9999 2.33333C24.2162 2.33333 26.8332 4.95036 26.8332 8.16667C26.8332 11.383 24.2162 14 20.9999 14Z" fill="#313B45"/>
<path d="M52.8413 15.509L62.1746 6.17511L63.8244 7.82542L54.491 17.1588L52.8413 15.509Z" fill="#313B45"/>
<path d="M60.6667 12.8333H63.0001V15.1666H60.6667V12.8333Z" fill="#313B45"/>
<path d="M53.6667 8.16669H56.0001V10.5H53.6667V8.16669Z" fill="#313B45"/>
<path d="M21.0001 53.6667C17.7838 53.6667 15.1667 56.2837 15.1667 59.5C15.1667 62.7163 17.7838 65.3334 21.0001 65.3334C24.2164 65.3334 26.8334 62.7163 26.8334 59.5C26.8334 56.2837 24.2164 53.6667 21.0001 53.6667ZM21.0001 63C19.0706 63 17.5001 61.4295 17.5001 59.5C17.5001 57.5706 19.0706 56 21.0001 56C22.9295 56 24.5001 57.5706 24.5001 59.5C24.5001 61.4295 22.9295 63 21.0001 63Z" fill="#313B45"/>
<path d="M35.0001 53.6667C31.7838 53.6667 29.1667 56.2837 29.1667 59.5C29.1667 62.7163 31.7838 65.3334 35.0001 65.3334C38.2164 65.3334 40.8334 62.7163 40.8334 59.5C40.8334 56.2837 38.2164 53.6667 35.0001 53.6667ZM35.0001 63C33.0706 63 31.5001 61.4295 31.5001 59.5C31.5001 57.5706 33.0706 56 35.0001 56C36.9295 56 38.5001 57.5706 38.5001 59.5C38.5001 61.4295 36.9295 63 35.0001 63Z" fill="#313B45"/>
<path d="M43.1667 59.5C43.1667 62.7163 45.7838 65.3334 49.0001 65.3334C52.2164 65.3334 54.8334 62.7163 54.8334 59.5C54.8334 56.2837 52.2164 53.6667 49.0001 53.6667C45.7838 53.6667 43.1667 56.2837 43.1667 59.5ZM49.0001 56C50.9295 56 52.5001 57.5706 52.5001 59.5C52.5001 61.4295 50.9295 63 49.0001 63C47.0706 63 45.5001 61.4295 45.5001 59.5C45.5001 57.5706 47.0706 56 49.0001 56Z" fill="#313B45"/>
<path d="M29.1667 40.8333H31.5001V43.1666H29.1667V40.8333Z" fill="#313B45"/>
<path d="M33.8333 40.8333H36.1666V43.1666H33.8333V40.8333Z" fill="#313B45"/>
<path d="M38.5 40.8333H40.8333V43.1666H38.5V40.8333Z" fill="#313B45"/>
</svg>
