<svg width="90" height="35" viewBox="0 0 90 35" fill="none" xmlns="http://www.w3.org/2000/svg">
<path d="M7.17578 1.40625L13.75 19.9688L20.2891 1.40625H27.2148V27H21.9238V20.0039L22.4512 7.92773L15.543 27H11.9219L5.03125 7.94531L5.55859 20.0039V27H0.285156V1.40625H7.17578ZM38.5879 19.8105L42.1035 7.98047H47.5527L39.9062 29.9531L39.4844 30.9551C38.3477 33.4395 36.4727 34.6816 33.8594 34.6816C33.1211 34.6816 32.3711 34.5703 31.6094 34.3477V30.498L32.3828 30.5156C33.3438 30.5156 34.0586 30.3691 34.5273 30.0762C35.0078 29.7832 35.3828 29.2969 35.6523 28.6172L36.25 27.0527L29.5879 7.98047H35.0547L38.5879 19.8105ZM54.918 27H49.8203V7.98047H54.918V27ZM49.5215 3.05859C49.5215 2.29688 49.7734 1.66992 50.2773 1.17773C50.793 0.685547 51.4902 0.439453 52.3691 0.439453C53.2363 0.439453 53.9277 0.685547 54.4434 1.17773C54.959 1.66992 55.2168 2.29688 55.2168 3.05859C55.2168 3.83203 54.9531 4.46484 54.4258 4.95703C53.9102 5.44922 53.2246 5.69531 52.3691 5.69531C51.5137 5.69531 50.8223 5.44922 50.2949 4.95703C49.7793 4.46484 49.5215 3.83203 49.5215 3.05859ZM80.4414 14.7832C80.4414 17.1738 80.0547 19.2539 79.2812 21.0234C78.5078 22.7812 77.4355 24.1934 76.0645 25.2598L80.3184 28.5996L76.9609 31.5703L71.5117 27.1934C70.8906 27.2988 70.2461 27.3516 69.5781 27.3516C67.457 27.3516 65.5645 26.8418 63.9004 25.8223C62.2363 24.8027 60.9473 23.3496 60.0332 21.4629C59.1191 19.5645 58.6562 17.3848 58.6445 14.9238V13.6582C58.6445 11.1387 59.0957 8.92383 59.998 7.01367C60.9121 5.0918 62.1953 3.62109 63.8477 2.60156C65.5117 1.57031 67.4102 1.05469 69.543 1.05469C71.6758 1.05469 73.5684 1.57031 75.2207 2.60156C76.8848 3.62109 78.168 5.0918 79.0703 7.01367C79.9844 8.92383 80.4414 11.1328 80.4414 13.6406V14.7832ZM75.0977 13.623C75.0977 10.9395 74.6172 8.90039 73.6562 7.50586C72.6953 6.11133 71.3242 5.41406 69.543 5.41406C67.7734 5.41406 66.4082 6.10547 65.4473 7.48828C64.4863 8.85938 64 10.875 63.9883 13.5352V14.7832C63.9883 17.3965 64.4688 19.4238 65.4297 20.8652C66.3906 22.3066 67.7734 23.0273 69.5781 23.0273C71.3477 23.0273 72.707 22.3359 73.6562 20.9531C74.6055 19.5586 75.0859 17.5312 75.0977 14.8711V13.623ZM89.3359 27H84.2383V7.98047H89.3359V27ZM83.9395 3.05859C83.9395 2.29688 84.1914 1.66992 84.6953 1.17773C85.2109 0.685547 85.9082 0.439453 86.7871 0.439453C87.6543 0.439453 88.3457 0.685547 88.8613 1.17773C89.377 1.66992 89.6348 2.29688 89.6348 3.05859C89.6348 3.83203 89.3711 4.46484 88.8438 4.95703C88.3281 5.44922 87.6426 5.69531 86.7871 5.69531C85.9316 5.69531 85.2402 5.44922 84.7129 4.95703C84.1973 4.46484 83.9395 3.83203 83.9395 3.05859Z" fill="white"/>
</svg>
